<svg xmlns="http://www.w3.org/2000/svg" xmlns:xlink="http://www.w3.org/1999/xlink" preserveAspectRatio="xMidYMid meet" version="1.0" viewBox="-6.9 -0.0 488.9 394.0" zoomAndPan="magnify" style="fill: rgb(244, 167, 152);" original_string_length="6835"><g id="__id189_s2fjiix2za"><path d="m150.65 0h7.95c4.58 2.4 6.34 7.57 8.45 11.98 19.2 44.37 38.3 88.84 52.84 135.04 2.72 10.08 14.54-0.18 20.76-0.44 13.21-6.73 26.22 2.27 39.62 1.38 32.89-18.24 65.72-37.23 100.84-50.9 28.87-7.58 58.93-21.15 89.26-14.49 4.59 1.24 10.59 2.21 11.63 7.8v4.38c-57.43 78.54-126.89 150.71-199.72 213.16 33.66 13.63 70.02-5.21 95.85-26.87 5.71-3.85 27.02-10.44 22.52 2.57-15.61 21.66-45.06 25.73-69.17 32.92-7.17 2.79-19.1-0.78-22.68 7.84 19.81 1.64 39.43-1.44 58.7-5.57 24.5-0.92 42.61-20.3 64.16-28.6 6.04 7.69-10.48 16.08-13.33 23.12-28.97 20.05-66.47 17.58-100.01 20.43-8.97-3.95-12.11 5.04-16.75 10.15-6.56 2.18-13.87 1-20.65 0.77-5.66 0.14-3.32-10.03-9.63-8.58-15.57 10.96-25 29.74-24.09 48.88-10.15-0.77-7.58-15.17-4.97-21.59 2.2-4.32 8.91-15.18-1.58-13.15-10.55 6.3-15.29 18.6-18.48 29.9-0.66 2.55-3.9 2.03-5.72 1.21-1.39-11.91 7.57-21.92 11.41-32.58-0.24-3.04-4.04-1.65-6.21-1.84-6.86 10.82-9.06 23.83-14.44 35.35-1.4 2.66-5.69 2.13-6.98-0.37 2.06-8.67 9.11-15.84 7.9-25.32-16.26 9.61-27.96 30.69-46.64 37.42h-5.59c-3.64-4.13 4.47-4.44 6.89-6.17 15.52-12.36 29.43-26.91 41.69-42.47 2.48-2.66 3.83-12.56-1.78-7.67-26.02 24.75-57.01 54.01-95.6 50.37-3.26-15.58 11.85-27.83 18.03-41.11-27.22 5.59-55.55-1.76-79.75-14.38-16.19-6.35-27.86-19.92-33.78-35.91-18.54-11.64-5.4-35.27-11.6-51.94v-4.32c4.06-24.38 22.74-45.53 47.11-52.16 3.71-7.16-4.89-16.25 2.75-22.59-0.24-17.95 8.98-34.11 12.05-51.66 7.52-12.99 3.62-31.03 16.56-41.03 0.22-15.16 11.22-33.63 25.76-38.31 0.67-3.07-0.39-6.4 0.8-9.33 14.63-9.64 27.54-22.6 45.62-25.32m-12.3 10.26c-4.99 0.72-8.38 5.95-5.84 10.82 13.69 29.47 24.59 62.15 47.8 85.58 1.34-19.2-14.75-37.36-19.34-56.51-5.31-8.2-5.19-19.68-13.42-25.84-2.93-4.52-1.04-15.25-9.2-14.05m-22.94 14.96c-5.28 1.57-6.16 9.08-5.07 13.75 19.59 29.67 33 62.79 49.66 94.05 4.86 13.75 22.92 24.71 36.79 22.69-9.92-38.28-45.96-63.46-55.88-102.59-8.83-9.33-9.26-29.21-25.5-27.9m50.57 11.84c7.71 38.42 27.89 74.78 37.8 113.2 1.48 30.07 19.63 56.38 22.26 86.61 10.34 20.51 12.82 43.25 19.32 64.95 6.41 1.99 2.77-6.81 3.28-10.21-5.08-28.74-13.78-56.72-19.84-85.23-8.26-16.51-4.82-36.43-14.95-52.25-13.56-36.57-27.7-72.6-42.02-108.95-1.53-2.86-2.51-6.95-5.85-8.12m-65.31 7.15c-8.14 7.77-19.74 17.41-14.61 30.15 23.75 26.27 39.76 58.04 59.62 87.34 14.24 8.53 20.75-11.97 12.03-20.45-10.79-17.5-18.39-36.83-26.56-55.42-13.92-11.16-13.67-36.06-30.48-41.62m-21.91 42c-9.59 13.5-18.76 38.8-1.61 50.7 25.65 17.29 37.06 47.29 60.92 66.1 3.2 1.91 9.36 6.41 11.85 1.21 6.03-30.32-19.14-50.97-32.41-74.73-7.98-15.37-20.33-27.62-30.85-41.18-1.73-2.6-4.98-3.03-7.9-2.1m373.02 2.11c-7.42 3.55-14.09 9.1-18.01 16.45-15.81 26.43-42.29 45.81-53.41 75.05-0.71 10.08 10.26-2.65 13.41-5.08 24.33-26.39 48.22-53.53 69.26-82.75-0.84-5.43-7.31-4.14-11.25-3.67m-35 5.15c-10.01 2.56-21.52 6.44-24.89 17.43-9.11 22.54-19.47 44.67-33.57 64.32 11.22 1.88 22.26-11.99 26.06-22.78 14.55-18.99 36.25-32.87 44.66-56.52-0.27-5.64-8.95-2.14-12.26-2.45m-32.35 9.99c-9.14 2.52-20.34 5.62-22.9 16.11-7.1 19.55-23.72 34.42-27.5 55.26 4.2 4.04 10.38 0.99 14.85-0.77 15.87-17.37 23.65-40.38 33.77-61.37 1.83-1.77 7.77-10.8 1.78-9.23m75 7.92c-22.14 26.78-46.34 52.44-69.8 78.27-40.03 29.31-76.17 63.26-106.29 102.77-0.5 3.65 6.23 0.2 6.55-1.34 31.3-29.14 62.36-58.51 94.56-86.64 25.61-29.34 52.44-57.68 76.71-88.15 0.62-1.76 1.46-6.97-1.73-4.91m-109.36 9.96c-14.64 4.53-32.71 10.06-36.56 26.67 1.04 17.16-11.37 32.96-7.49 50.03 18.95-10.93 20.05-37.81 35.14-52.93 2.07-7.54 12.46-18.58 8.91-23.77m-285.65 19.24c-6.62 13.83-6.8 31.18-7.29 46.75 33.62 14.94 64.78 39.22 91.8 64.7 2.27 3.66 10.53 6.29 10.99 0.19-7.7-10.52-8.96-24.53-17.78-34.37-23.55-27.73-45.89-59.41-77.72-77.27m236.93 6.75c-12.46 4.27-24.5 13.54-30.27 25.29 5.09 34.06 0.08 69.18-9.39 102.19 17.46-35.57 34.82-72.75 43.43-111.87-1.56-3.8 3.57-17.4-3.77-15.61m-49.57 4.16c-15.6 2.74-19.1 32.98-10.46 38.35 7.32-13 22.41-20.48 27.62-34.65-4.35-4.52-11.39-4.8-17.16-3.7m-85.42 3.66c-9.96 12.51 5.27 23.83 7.47 36.04 9.81 17.13 18.81 34.65 25.88 53.1 9.9 22.3 30.02 38.89 36.61 62.55 6.4 0.74 1.47-7.62 0.57-10.73-9.99-42.65-19.53-86.05-38.58-125.43-10.02-5.8-21.2-11.59-31.95-15.53m65.46 2.25c-9.69 0.68-11.45 19.69-2.1 19.5-2.42-5.77 14.23-21.95 2.1-19.5m-72.38 18.78c-9.85 18.3 5.36 38.57 21.34 46.51 3.36-6.66-5.18-14.03-6.61-20.87-4.64-8.24-5.72-22.29-14.73-25.64m101.95 4.18c-23 7.64-21.08 39.58-14.4 56.75 6.62-8.35-0.23-24.76 5.05-33.25 8.01 15.59-5.28 42.53 4.9 57.26 10.18-21 9.48-45.21 9.36-67.98-1.18-3.32 1.53-14.28-4.91-12.78m71.02 3.25c-11.86 3.63-14.59 17.84-24.61 24.2-23.85 16.25-24.36 47.43-38.66 70.36-1.6 9.07-10.19 23.74-1.13 30.06 15.63-32.23 42.76-57.23 66.55-83.66 13.16-10.26 31.14-19.52 32.51-38.21-9.81-5.28-23.28-1.85-34.66-2.75m-289.64 12.96c-8.38 1.23-9.29 9.29-0.18 9.9 9.75 7.17 10.62-14.99 0.18-9.9m15.91 2.67c-8 6.66 3.7 18.82 6.51 26.52 41.55 29.15 83.69 65.39 134.91 73.31-50.67-27.87-85.01-82.75-141.42-99.83m-31.9 7.14c-7.94 2.34-13.14 11.85-11.16 19.69 13.75 6.42 29.07 8.19 43.45 12.77 1.47-17.14-16.24-31.65-32.29-32.46m130.53 5.72c-7.06 11.88 3.22 24.14 7.62 34.95 5.62 10.8 5.27 25.46 16 33.05 18.31 8.62 33.38 23.28 52.03 30.75-21.37-34.43-42.81-74.6-75.65-98.75m-140.65 21.3c-15.87 2.59-11.4 21.49-8.35 32.35 20.66 0.35 42.71 2.77 62.67 10.24 9.1-1.55 13.68-12.02 4.46-17.52-5.75-17.54-26.41-15.05-40.35-21.41-5.04-4.36-12.15-4.23-18.43-3.66m58.83 8.85c-3.91 7.32 11.15 11.91 13.46 18.79 10.84 6.28 19.9 16.08 32.2 19.79 27.5 14.88 57.74 32.17 90.46 31.08 3.95-1.75-0.41-7.93-4.19-4.32-20.95-0.73-39.51-12.68-58.54-20.46-26.94-10.4-48.39-32.78-73.39-44.88m-52.76 30.18c-11.01-0.57-18.66 6.5-11.4 16.21 7.97 1.89 7.75 15.33 17.13 12.96 13.96-3.34 27.7-9.76 42.4-6.53 4.88 3.05 9.34-4.57 3.43-6.25-14.12-11.62-33.25-18.08-51.56-16.39m63.02-0.01c-16.92 8.08 3.15 21.44 9 30.11 18.96 0.37 38.49-2.25 57.3 2.6-9.93-7.03-24.05-6.4-33.81-14.41-11.35-4.73-19.78-18.33-32.49-18.3m-25.39 28.28c-10.7 0.44-24.45 0.15-32.17 8.57 4.78 9.14 19.08 17.12 29.06 9.97 8.49-5.16 19.31-5.66 27.55-10.66-0.54-10.78-17.29-7.47-24.44-7.88m59.11 4.69c-3.51 2.2-7.69 3.03-11.27 4.91-0.13 4.57 6.19 6.91 7.48 11.4 20.63-4.9 41.96-6.87 63.2-5.54 3.59 4.97 7.47-3.07 3.33-2.35-20.99-2.6-41.71-7.79-62.74-8.42m-27.76 6.29c-12.76 4.54-25.11 10.15-37.51 15.54-3.8 3.64 4.12 4.78 6.56 6 16.91 11.25 34.13-2.42 50.59-6.96 2.7-4.5-4.97-5.08-7.4-7.14-5.46-0.98-5.41-10.74-12.24-7.44m74.73 6.77c-16.33-0.18-31.47 5.67-47.38 9.83-1.4 9.21 9.84 13.79 15.74 7.37 8.29 0.52 16.52-2.04 22.84-7.23 5.12 2.05 18.19-9.35 8.8-9.97m-55.96 13.12c-5 1.24-14.54 2.12-14.42 8.25 7.67 8.31 33.57-4.23 14.42-8.25z" style="fill: inherit;"/></g></svg>