<svg xmlns="http://www.w3.org/2000/svg" xmlns:xlink="http://www.w3.org/1999/xlink" data-name="Layer 1" preserveAspectRatio="xMidYMid meet" version="1.0" viewBox="26.0 205.0 467.2 206.9" zoomAndPan="magnify" style="fill: #f4a798;" original_string_length="4112"><g id="__id174_spm0lo026i"><path d="M71.3,253.34c1-5.52,1.91-10.67,2.85-15.82,1.27-6.93,2.35-13.92,3.9-20.78,1-4.29,2.91-8.21,6.57-10.71a1.8,1.8,0,0,1,.77-.36c3.48-.27,6.94-.7,10.35.74a54,54,0,0,0,6.12,1.86c2.32.67,4.66,1.29,7,2s4.74,1.46,7.13,2.11c3.36.92,6.74,1.78,10.12,2.62,2.5.63,5,1.2,7.53,1.78,4.17,1,8.36,1.84,12.51,2.91,2.05.52,4,1.47,6,2.1,2.47.77,5,1.37,7.47,2.11,1.29.39,2.54.94,3.81,1.39,3.29,1.15,6.57,2.33,9.87,3.43,2.43.81,4.9,1.46,7.33,2.28,1.8.62,3.56,1.42,5.35,2.08,1.63.6,3.29,1.14,4.94,1.7a50.78,50.78,0,0,1,11.46,5.4c3.42,2.2,7,4,10.44,6.29,2.83,1.86,5.4,4.16,8.22,6.05,1.58,1.06,3.16,2.34,5.25,2.13,3.7-.36,7.39-.8,11.1-.93,6.75-.24,13.52-.28,20.28-.37,2.14,0,4.28.07,6.42.1a2.38,2.38,0,0,0,1.17-.09c3-1.88,5.63-.47,8.23,1.2a1.3,1.3,0,0,0,1.14.13c1.54-.88,3-.27,4.56-.07a8,8,0,0,0,3.65-.79c2.94-1.1,5.87-2.28,8.76-3.53,3.61-1.56,7.2-3.2,10.77-4.86s6.85-3.25,10.27-4.89c2.53-1.22,5-2.56,7.6-3.67s5.49-2.11,8.24-3.15c3.37-1.28,6.74-2.59,10.12-3.83,1.64-.61,3.31-1.12,5-1.66,3.3-1.08,6.62-2.14,9.92-3.24,3.48-1.15,6.93-2.38,10.43-3.48,2.57-.81,5.2-1.41,7.78-2.21,1.88-.58,3.68-1.43,5.56-2,2.37-.72,4.81-1.21,7.19-1.91,2.63-.78,5.22-1.76,7.86-2.51,1.73-.48,3.53-.66,5.28-1.05,5.06-1.14,10.09-2.5,15.19-3.39,3.06-.54,4,.52,5,3.83a22.74,22.74,0,0,1,.82,2.36c.46,2.73,2.67,3.54,4.37,4.92,2.32,1.89,5.25,2.94,6.9,5.75a6,6,0,0,1,1,2.75c.1,6.07,0,12.14.16,18.21a40.45,40.45,0,0,0,1.33,8.08c.15.6,1.43,1.17,2.22,1.22,2.74.19,5.5.24,8.25.17,7.32-.18,14.64-.58,22-.65,3.87,0,7.75.49,11.63.64,3.65.14,7.3.09,10.95.18a31.94,31.94,0,0,1,4.38.35,1.71,1.71,0,0,1,1.06,1.13,14.54,14.54,0,0,1,.27,3.1c-.08,12.93-.21,25.87-.25,38.8,0,5.89.17,11.77.25,17.65,0,1.11-.06,2.21-.08,3.31,0,1.26-.55,1.87-1.76,1.93-5.85.28-11.7.75-17.55.9-11.84.3-23.69.41-35.53.67a22.82,22.82,0,0,0-4.83.77,1.9,1.9,0,0,0-1.11,1.26c-.54,2.74-.9,5.53-1.45,8.27-.47,2.37-1.12,4.71-1.67,7.06-1.17,5-2.22,10-3.51,14.91-1,4-2.31,8-3.61,11.88s-2.78,7.89-4.26,11.8a80.78,80.78,0,0,1-7.21,15.23c-2.33,3.64-4.55,7.36-7,10.91a27.27,27.27,0,0,1-4.16,4.61,3.3,3.3,0,0,1-4.24.56c-.92-.55-2.05-.68-3-1.21-2.31-1.3-4.47-2.94-6.85-4a64.69,64.69,0,0,0-7.15-2.29,13.11,13.11,0,0,1-2.17-.87,59.46,59.46,0,0,0-6.3-3.33,71.88,71.88,0,0,1-18.18-10.11c-3.5-2.66-7.07-5.21-10.56-7.9-2.72-2.1-5.33-4.36-8-6.5-3.3-2.64-6.67-5.17-9.92-7.88-2.39-2-4.62-4.22-6.94-6.31-4-3.58-8-7.15-12-10.68-3-2.65-6-5.32-9.15-7.8a50.35,50.35,0,0,0-6.64-4.46,14.22,14.22,0,0,1-7-9.74c-.46-2-.86-2-2.55-1.28a11.23,11.23,0,0,1-4.24.86c-6.26.15-12.52,0-18.76.28-5.39.28-10.76,1.11-16.14,1.65-4.43.45-8.86.82-13.28,1.24a2.67,2.67,0,0,0-1.14.22c-3.52,2.09-7.07,4.13-10.51,6.36a21.24,21.24,0,0,0-6.18,6.88c-3.33,5.33-7.93,9.22-12.51,13.14-1.6,1.37-2.94,3.09-4.53,4.47q-4.09,3.54-8.35,6.85t-8.51,6.32a18.34,18.34,0,0,1-3.48,1.76c-3.65,1.53-7.35,2.94-11,4.54a6.86,6.86,0,0,0-2.14,2c-2,2.4-4.67,3.48-7.27,4.71-1.42.67-3,1-4.39,1.67-2.73,1.21-5.38,2.64-8.15,3.71a30.29,30.29,0,0,1-6.82,1.82,9.24,9.24,0,0,0-3.73,1.33A37.59,37.59,0,0,1,122,399a27.63,27.63,0,0,1-4.85,1.39,6.3,6.3,0,0,1-5.49-1c-2.19-1.7-4.77-2.86-6.84-4.71a29.64,29.64,0,0,1-4.7-5.85c-2.69-4-5.31-8.14-7.77-12.34a83,83,0,0,1-4-8.14c-1.29-2.91-2.5-5.88-3.6-8.88-.71-1.91-1.14-3.93-1.73-5.89-.71-2.42-1.46-4.82-2.19-7.23-.59-2-1.08-4-1.78-5.95-.94-2.59-2.06-5.09-3.06-7.64-.7-1.78-1.33-3.59-2-5.39-.5-1.36-1.15-2.63-2.63-2.82a11.35,11.35,0,0,0-6.49,1c-2.63,1.22-5.68,2.1-8.7,1-1.51-.54-3-1.19-4.47-1.83a6.31,6.31,0,0,0-5.86.45c-3.21,1.81-9.24,1.19-11.89-1.46a6.23,6.23,0,0,0-5.36-2c-2.18.24-2.4-.05-2.57-2.45,0-.67,0-1.34,0-2V258c0-4.69,0-4.67,4.32-4.61,2.08,0,4.18,0,6.25-.13a19.46,19.46,0,0,0,3.37-.88,7.85,7.85,0,0,1,1.48-.38,16,16,0,0,1,9.19,2.27,2.26,2.26,0,0,0,1.54,0c1.12-.28,2.21-1,3.33-1,4.22-.1,8.45,0,12.68,0Z" style="fill: inherit;"/></g></svg>