<?xml version="1.0" encoding="UTF-8"?><svg xmlns="http://www.w3.org/2000/svg" xmlns:xlink="http://www.w3.org/1999/xlink" height="435.5" preserveAspectRatio="xMidYMid meet" version="1.0" viewBox="0.0 0.0 435.5 435.5" width="435.5" zoomAndPan="magnify"><g id="change1_2"><path d="M217.76,435.53c-58.17,0-112.85-22.65-153.98-63.78C22.65,330.62,0,275.93,0,217.76 S22.65,104.91,63.78,63.78C104.91,22.65,159.6,0,217.76,0s112.85,22.65,153.98,63.78c41.13,41.13,63.78,95.82,63.78,153.98 s-22.65,112.85-63.78,153.98C330.62,412.88,275.93,435.53,217.76,435.53z M217.76,15C105.96,15,15,105.96,15,217.76 s90.96,202.76,202.76,202.76s202.76-90.96,202.76-202.76S329.57,15,217.76,15z" fill="#000"/></g><g id="change1_1"><path d="M176.8,326.76c-3.16,0-6.34-0.73-9.31-2.2c-7.13-3.55-11.55-10.7-11.55-18.66V129.63 c0-7.96,4.43-15.11,11.55-18.66s15.5-2.77,21.85,2.03l116.64,88.14c5.26,3.98,8.28,10.04,8.28,16.63c0,6.59-3.02,12.65-8.28,16.63 l-116.64,88.14C185.64,325.33,181.24,326.76,176.8,326.76z M176.85,123.76c-1.19,0-2.15,0.38-2.67,0.64 c-0.97,0.48-3.24,1.96-3.24,5.23V305.9c0,3.27,2.26,4.75,3.24,5.23c0.97,0.49,3.52,1.4,6.13-0.57l116.64-88.14 c1.47-1.11,2.32-2.81,2.32-4.66c0-1.85-0.84-3.55-2.32-4.66L180.3,124.97C179.09,124.05,177.89,123.76,176.85,123.76z" fill="#000"/></g></svg>