<svg xmlns="http://www.w3.org/2000/svg" xmlns:xlink="http://www.w3.org/1999/xlink" preserveAspectRatio="xMidYMid meet" version="1.0" viewBox="36.7 31.7 93.4 84.0" zoomAndPan="magnify" style="fill: #f4a798;" original_string_length="1108"><g id="__id172_spm0lo026i"><path d="m78.931 112.93c-2.345-1.072-5.14-5.339-7.646-14.63-2.568-9.163-5.573-17.556-10.413-25.509-0.835-0.846-1.604-1.444-2.439-1.25l-3.095 0.526c-1.213 0.287-1.915 0.864-1.912 1.846-0.685 12.09-1.09 24.141-0.328 36.05l-0.461 0.594-1.254 0.066c-2.484 0.019-2.334-0.296-2.834-0.527 0.357-6.895-0.241-13.945-0.989-21.025-1.01-10.498-3.718-20.508-8.365-29.964-0.213-0.657-0.039-0.951 0.143-1.199-2.684-6.835 4.084-18.845 12.52-24.083 0.322-0.346 0.493-0.535 0.64-0.703-0.157-1.412 27.336 37.75 25.316 36.307 2.492 4.79 4.165 9.578 5.734 14.369 2.443 4.692 6.999 6.898 14.302 5.867 4.414-0.266 8.83 3.295 13.114 5.14 7.877 3.285 15.292 6.475 17.73 8.635 1.318 1.712 1.119 3.494 0 4.745-0.248 0.961-0.904 1.513-1.848 1.778-8.516 2.586-17.647 3.743-26.757 4.945-10.956 0.84-17.494-0.02-21.149-1.97z" fill-rule="evenodd" style="fill: inherit;"/></g></svg>